<?xml version="1.0" encoding="UTF-8"?>
<!DOCTYPE svg PUBLIC "-//W3C//DTD SVG 1.1//EN" "http://www.w3.org/Graphics/SVG/1.1/DTD/svg11.dtd">
<!-- Creator: CorelDRAW X6 -->
<svg xmlns="http://www.w3.org/2000/svg" xml:space="preserve" width="4.5in" height="1.7in" version="1.1" style="shape-rendering:geometricPrecision; text-rendering:geometricPrecision; image-rendering:optimizeQuality; fill-rule:evenodd; clip-rule:evenodd"
viewBox="0 0 4500 1700"
 xmlns:xlink="http://www.w3.org/1999/xlink">
 <defs>
  <style type="text/css">
   <![CDATA[
    .fil0 {fill:#FEFEFE;fill-rule:nonzero}
   ]]>
  </style>
 </defs>
 <g id="Layer_x0020_1">
  <metadata id="CorelCorpID_0Corel-Layer"/>
  <path class="fil0" d="M1880 1332l-4 -1 -3 0 -3 0 -3 -1 -3 -1 -3 -1 -3 -1 -3 -1 -3 -1 -3 -1 -3 -1 0 0 -3 -1 -3 -1 -2 -1c-1,0 -3,-1 -4,-1l-2 -1c-1,0 -3,-1 -4,-1l-2 -1c-1,0 -2,-1 -4,-1l-2 -1c-1,-1 -3,-1 -4,-2l-1 0c-5,-2 -9,-4 -14,-6l-1 -1c-2,-1 -3,-2 -5,-2l-1 0c-2,-1 -3,-2 -5,-2l-1 0c-2,-1 -3,-2 -5,-3l-1 -1c-1,-1 -3,-2 -4,-3l-1 -1 -2 -2 -3 -2c-3,-2 -5,-4 -8,-5l0 0c-2,-1 -3,-2 -5,-4l-1 0c-5,-4 -10,-8 -14,-12l0 0c-4,-3 -8,-7 -11,-11l0 0c-3,-3 -6,-6 -8,-9l0 0c-39,50 -100,81 -168,81 -118,0 -214,-96 -214,-214l0 -161c0,-2 0,-5 0,-7l0 -127c0,-74 -60,-134 -134,-134 -74,0 -134,60 -134,134l0 454c0,30 -24,54 -54,54 -30,0 -54,-24 -54,-54l0 -454 0 0 0 0 0 -283c-120,29 -214,75 -214,256 0,4 0,8 -1,11 0,4 0,7 0,11 0,30 -24,54 -54,54 -30,0 -54,-24 -54,-54 0,-20 -4,-38 -12,-55l-1 -1 -2 -5c-22,-43 -68,-73 -120,-73 -7,0 -14,1 -20,2 -1,0 -2,0 -3,1l0 0c-1,0 -2,0 -3,1l0 0c-1,0 -2,0 -3,1l0 0c-1,0 -2,1 -3,1l0 0c-1,0 -2,1 -3,1 -56,16 -98,68 -98,129l0 268c0,74 60,134 134,134 8,0 16,-1 23,-2l1 0 2 0 1 0c1,0 2,0 3,-1l1 0 3 -1 0 0c1,0 2,-1 3,-1l1 0 3 -1 0 0c1,0 2,-1 3,-1l0 0c33,-11 60,-34 76,-65l3 -6c0,-1 1,-2 1,-2 7,-17 11,-35 11,-54 0,-30 24,-54 54,-54 30,0 54,24 54,54 0,40 -10,78 -28,112l-1 2c-33,62 -91,106 -158,122l-1 0c-2,0 -4,1 -6,1l0 0c-2,0 -4,1 -5,1l-1 0c-2,0 -4,1 -5,1l-1 0c-2,0 -3,0 -5,1l-1 0c-10,1 -20,2 -30,2 -133,0 -241,-108 -241,-241l0 -268c0,-104 66,-193 159,-227 2,-1 4,-1 6,-2l0 0c4,-1 8,-2 11,-4 2,-1 4,-1 6,-2l0 0c2,0 4,-1 6,-1l0 0c2,0 4,-1 6,-1l0 0c2,0 4,-1 6,-1l0 0c2,0 4,-1 6,-1 12,-2 24,-3 37,-3 61,0 118,23 162,62 62,-160 222,-194 336,-218 134,-28 173,-46 173,-110l0 0c0,-29 -24,-53 -53,-53 -29,0 -53,24 -53,53l0 4c0,30 -24,54 -54,54 -30,0 -54,-24 -54,-54l0 -4c0,-89 72,-161 161,-161 89,0 161,72 161,161 0,1 0,1 0,2 -1,138 -110,179 -214,203l0 106c38,-26 85,-41 134,-41 133,0 241,108 241,241l0 177c0,2 0,5 0,7l0 111c0,59 48,107 107,107 59,0 107,-48 107,-107l0 -27 0 -158 0 0 0 -110c0,-121 90,-222 206,-239l1 0 3 0 0 0c2,0 4,0 6,-1l0 0c6,-1 12,-1 18,-1l0 0c2,0 4,0 6,0 21,0 41,3 60,8l0 0c8,2 15,4 23,7l0 0c7,3 14,6 21,9l0 0 0 0c2,1 3,2 5,2l1 0c2,1 3,2 5,3l0 0c2,1 3,2 5,3l0 0 0 0c2,1 3,2 5,3l0 0c2,1 3,2 5,3l0 0c1,1 3,2 4,3l0 0 0 0c5,-24 27,-41 52,-41 30,0 54,24 54,54l0 173c0,2 0,3 0,5l0 0 0 0 0 0 0 0 0 1 0 0 0 0 0 0 0 0 0 0 0 1 0 0 0 0c0,2 0,3 0,5l0 0 0 0 0 0 0 0 0 267c0,5 0,10 0,15l0 21c0,11 -3,21 -9,29 -26,90 -103,159 -198,173l-1 0c-11,2 -23,2 -34,2l-1 0 -4 0 -2 0c-1,0 -3,0 -4,0l-2 0c-1,0 -3,0 -4,0l-2 0c-1,0 -3,0 -4,0l-4 0zm2241 -702c0,2 0,5 0,7l0 457 0 0 0 2c-1,73 -62,131 -136,131 -74,0 -134,-60 -134,-134l0 -1 0 -452 0 -1 0 -1c0,-30 -24,-54 -54,-54l-266 0 0 -216c0,-59 48,-107 107,-107l54 0c30,0 54,-24 54,-54 0,-30 -24,-54 -54,-54l-54 0 -1 0c-1,0 -1,0 -2,0 -117,2 -211,97 -211,214l0 216 -54 0c-30,0 -54,24 -54,54 0,30 24,54 54,54l54 0 0 374c0,1 0,1 0,2l0 53c0,59 -48,107 -107,107 -59,0 -107,-48 -107,-107l0 -482c0,-30 -24,-54 -54,-54 -30,0 -54,24 -54,54l0 482c0,118 96,214 214,214 118,0 214,-96 214,-214l0 -25c0,-1 0,-1 0,-2l0 -403 212 0 0 402 0 0 0 0 0 13c0,4 0,8 1,12 13,121 115,216 240,216 50,0 97,-15 136,-41l0 41c0,59 -48,107 -107,107l-54 0c-30,0 -54,24 -54,54 0,30 24,54 54,54l54 0 2 0c1,0 1,0 2,0 117,-2 211,-97 211,-214l0 -238 0 -1 0 -1 0 -457c0,-30 -24,-54 -54,-54 -28,0 -50,21 -53,48zm-1633 547c1,1 2,3 3,4m-449 -77l0 -291c-5,-56 -44,-103 -97,-118l0 0c-1,0 -2,-1 -3,-1l0 0c-1,0 -2,-1 -3,-1l0 0c-1,0 -2,0 -3,-1l-1 0 -3 -1 -1 0c-1,0 -2,0 -3,-1l0 0c-1,0 -2,0 -3,0l0 0c-1,0 -2,0 -3,0l0 0c-2,0 -4,0 -7,-1l0 0c-2,0 -5,0 -7,0 -1,0 -2,0 -3,0l0 0c-1,0 -2,0 -3,0l0 0 0 0 -3 0 0 0 0 0 0 0 0 0 0 0 -2 0 0 0 0 0 -1 0 0 0 0 0 0 0 -1 0 0 0 0 0 -1 0 0 0 0 0 0 0 0 0 0 0c-65,9 -115,65 -115,133l0 109 0 1 0 156 0 2c0,74 60,134 134,134 1,0 2,0 3,0l0 0c2,0 4,0 6,0l3 0 0 0 0 0 0 0 0 0 0 0 0 0 0 0 1 0 0 0 0 0 1 0 0 0 0 0 0 0 0 0 0 0 0 0 0 0 0 0 1 0c61,-9 109,-59 114,-121zm644 -174l0 -172c0,-30 -13,-60 -36,-80 -22,-20 -24,-54 -4,-76 20,-22 54,-24 76,-4 14,13 26,27 36,42 37,-34 87,-55 141,-55 0,0 1,0 1,0l68 0c30,0 54,24 54,54 0,30 -24,54 -54,54l-66 0c-59,0 -107,48 -107,107l0 295c0,5 -1,9 -2,13l0 12c0,118 -95,214 -213,214l-1 0 0 0c-2,0 -4,0 -6,0l0 0c-2,0 -4,0 -5,0l0 0c-2,0 -4,0 -5,0l0 0c-2,0 -4,0 -5,0l0 0c-2,0 -4,0 -5,-1l0 0c-2,0 -4,0 -5,-1l0 0c-2,0 -4,-1 -5,-1l0 0c-2,0 -4,-1 -5,-1l0 0c-2,0 -3,-1 -5,-1l0 0c-2,0 -3,-1 -5,-1 -2,0 -3,-1 -5,-1l0 0c-2,0 -3,-1 -5,-2l0 0c-2,-1 -3,-1 -5,-2l0 0c-2,-1 -3,-1 -5,-2 -2,-1 -3,-1 -5,-2l0 0c-3,-1 -6,-3 -10,-4l0 0c-2,-1 -3,-1 -5,-2l0 0c-2,-1 -3,-2 -5,-2l0 0c-2,-1 -3,-2 -5,-2l0 0c-2,-1 -3,-2 -5,-3 -12,-7 -23,-15 -34,-24l0 0c-1,-1 -3,-2 -4,-3l0 0c-1,-1 -3,-2 -4,-4l0 0c-1,-1 -2,-2 -4,-4l0 0c-1,-1 -2,-2 -4,-4l0 0c-1,-1 -2,-3 -4,-4l0 0 -2 -2c-39,45 -97,73 -161,73 -68,0 -129,-32 -168,-81 24,-27 42,-59 52,-94 5,-8 9,-18 9,-29l0 -10 0 1c0,59 48,107 107,107 59,0 107,-48 107,-107l0 0 0 -645 -54 0c-30,0 -54,-24 -54,-54 0,-30 24,-54 54,-54l54 0 0 -162c0,-30 24,-54 54,-54 30,0 54,24 54,54l0 162 53 0c30,0 54,24 54,54 0,30 -24,54 -54,54l-53 0 0 645c0,1 0,2 0,3l0 0c0,1 0,2 0,3l0 0c0,1 0,2 0,3l0 0c0,1 0,2 0,3l0 0c0,1 0,2 0,3 0,1 0,2 0,3l0 0c0,1 0,2 0,3l0 0c0,1 0,2 1,3l0 0c0,1 0,2 1,3 0,1 0,2 1,3 0,1 0,2 1,3 0,1 0,2 1,3l0 0c0,1 1,2 1,3 0,1 1,2 1,2l0 0c0,1 1,2 1,2 0,1 1,2 1,2 0,1 1,2 1,2 0,1 1,2 1,2 0,1 1,2 1,2l0 0 1 2c0,1 1,2 1,2l0 0c0,1 1,1 1,2l0 0c0,1 1,1 1,2l0 0c1,1 2,3 3,4l0 0c16,22 40,38 68,44 1,0 2,0 3,0l0 0c1,0 2,0 3,0l0 0c1,0 2,0 3,0l0 0c1,0 2,0 3,0l0 0c1,0 2,0 3,0l0 0c1,0 2,0 3,0l0 0c1,0 2,0 3,0l0 0c59,0 107,-48 107,-107l0 -185c0,-2 0,-3 0,-5zm-597 323c-29,-37 -47,-83 -47,-133 0,-30 24,-54 54,-54 29,0 53,24 54,53l0 10c0,11 -3,21 -9,29 -10,35 -28,68 -52,94zm1119 -830c0,30 -24,54 -54,54 -30,0 -54,-24 -54,-54 0,-30 24,-54 54,-54 30,0 54,24 54,54z"/>
 </g>
</svg>
